<?xml version="1.0" encoding="iso-8859-1"?>
<!-- Uploaded to: SVG Repo, www.svgrepo.com, Generator: SVG Repo Mixer Tools -->
<svg fill="#000000" height="800px" width="800px" version="1.1" id="Layer_1" xmlns="http://www.w3.org/2000/svg" xmlns:xlink="http://www.w3.org/1999/xlink" 
	 viewBox="0 0 512 512" xml:space="preserve">
<g>
	<g>
		<path d="M498.526,214.388h-90.929l-20.023-123.97c-1.886-11.705-8.692-22.054-18.623-28.526
			c-9.94-6.477-22.236-8.428-33.696-5.433l-4.942,1.304c-48.606,12.722-99.996,12.723-148.588-0.011l-4.933-1.296
			c-11.481-2.999-23.769-1.005-33.711,5.473c-9.933,6.473-16.711,16.745-18.598,28.438l-20.078,124.02H13.474
			C6.032,214.386,0,220.42,0,227.86c0,37.147,30.221,67.368,67.368,67.368h377.263c37.147,0,67.368-30.221,67.368-67.368
			C512,220.421,505.968,214.388,498.526,214.388z M151.083,94.667c0.69-4.279,3.072-7.865,6.707-10.232
			c3.645-2.375,7.971-3.036,12.153-1.947l4.925,1.318c53.08,13.912,109.188,13.93,162.243,0.042l4.934-1.281
			c4.204-1.098,8.525-0.396,12.165,1.977c3.634,2.367,6.015,5.88,6.707,10.17l10.015,61.738H141.065L151.083,94.667z
			 M136.709,183.398h238.581l5.009,30.989H131.7L136.709,183.398z M444.632,268.282H67.368c-17.567,0-32.551-10.779-38.113-26.947
			h453.488C477.183,257.503,462.199,268.282,444.632,268.282z"/>
	</g>
</g>
<g>
	<g>
		<path d="M401.516,335.651h-99.705c-17.576,0-32.104,13.474-34.113,29.642h-23.397c-2.008-16.168-16.535-29.642-34.113-29.642
			h-99.704c-18.945,0-35.032,15.041-35.032,33.986v21.783c0,37.734,30.895,65.494,72.533,65.494h24.701
			c41.221,0,71.235-26.947,71.832-64.674h22.962c0.597,37.726,30.609,64.674,71.832,64.674h24.701
			c41.638,0,71.186-27.76,71.186-65.494v-21.781C435.2,350.693,420.461,335.651,401.516,335.651z M216.928,391.421
			c-0.001,26.371-21.885,38.545-44.24,38.545h-24.701c-22.356,0-45.586-12.176-45.586-38.547v-21.781
			c0-4.085,3.998-7.039,8.084-7.039h99.705c4.087,0,6.737,2.953,6.737,7.039V391.421z M408.254,391.421h-0.001
			c0,26.371-21.884,38.547-44.238,38.547h-24.701c-22.356,0-45.586-12.176-45.586-38.547v-21.783c0-4.085,3.998-7.039,8.084-7.039
			h99.705c4.087,0,6.737,2.953,6.737,7.039V391.421z"/>
	</g>
</g>
</svg>